<svg width="74" height="24" viewBox="0 0 74 24" fill="none" xmlns="http://www.w3.org/2000/svg">
<path d="M1.82129 10.4742C0.992862 10.4742 0.321289 11.1458 0.321289 11.9742C0.321289 12.8027 0.992862 13.4742 1.82129 13.4742V10.4742ZM73.1902 13.0349C73.7759 12.4491 73.7759 11.4994 73.1902 10.9136L63.6442 1.36764C63.0584 0.781855 62.1087 0.781855 61.5229 1.36764C60.9371 1.95343 60.9371 2.90318 61.5229 3.48896L70.0082 11.9742L61.5229 20.4595C60.9371 21.0453 60.9371 21.9951 61.5229 22.5808C62.1087 23.1666 63.0584 23.1666 63.6442 22.5808L73.1902 13.0349ZM1.82129 13.4742H72.1295V10.4742H1.82129V13.4742Z" fill="#0094A8"/>
</svg>
