<svg width="47" height="46" viewBox="0 0 47 46" fill="none" xmlns="http://www.w3.org/2000/svg">
<path fill-rule="evenodd" clip-rule="evenodd" d="M23.5 0.0212402C10.5162 0.0212402 0 10.5375 0 23.5212C0 33.92 6.72687 42.7031 16.0681 45.8169C17.2431 46.0225 17.6838 45.3175 17.6838 44.7006C17.6838 44.1425 17.6544 42.2919 17.6544 40.3237C11.75 41.4106 10.2225 38.8844 9.7525 37.5625C9.48812 36.8869 8.3425 34.8012 7.34375 34.2431C6.52125 33.8025 5.34625 32.7156 7.31437 32.6862C9.165 32.6569 10.4869 34.39 10.9275 35.095C13.0425 38.6494 16.4206 37.6506 17.7719 37.0337C17.9775 35.5062 18.5944 34.4781 19.27 33.8906C14.0413 33.3031 8.5775 31.2762 8.5775 22.2875C8.5775 19.7319 9.48813 17.6169 10.9863 15.9719C10.7513 15.3844 9.92875 12.9756 11.2213 9.74436C11.2213 9.74436 13.1894 9.12749 17.6838 12.1531C19.5637 11.6244 21.5613 11.36 23.5588 11.36C25.5562 11.36 27.5538 11.6244 29.4338 12.1531C33.9281 9.09811 35.8963 9.74436 35.8963 9.74436C37.1888 12.9756 36.3663 15.3844 36.1313 15.9719C37.6294 17.6169 38.54 19.7025 38.54 22.2875C38.54 31.3056 33.0469 33.3031 27.8181 33.8906C28.67 34.625 29.4044 36.035 29.4044 38.2381C29.4044 41.3812 29.375 43.9075 29.375 44.7006C29.375 45.3175 29.8156 46.0519 30.9906 45.8169C35.6557 44.2418 39.7095 41.2435 42.5813 37.244C45.4532 33.2445 46.9986 28.445 47 23.5212C47 10.5375 36.4837 0.0212402 23.5 0.0212402Z" fill="black"/>
</svg>
