<svg width="188" height="47" viewBox="0 0 188 47" fill="none" xmlns="http://www.w3.org/2000/svg">
<rect x="1.73611" y="1.73611" width="184.528" height="43.8148" rx="21.9074" stroke="#0450DB" stroke-width="2.52778"/>
<path fill-rule="evenodd" clip-rule="evenodd" d="M23.6441 5.52777C13.639 5.52777 5.52832 13.6385 5.52832 23.6435C5.52832 33.6486 13.639 41.7593 23.6441 41.7593C33.6491 41.7593 41.7598 33.6486 41.7598 23.6435C41.7598 13.6385 33.6491 5.52777 23.6441 5.52777ZM24.1165 34.227L32.1598 26.1837C32.6534 25.6901 32.6534 24.8899 32.1598 24.3963C31.6662 23.9027 30.866 23.9027 30.3724 24.3963L24.4867 30.282V13.9537C24.4867 13.2557 23.9208 12.6898 23.2228 12.6898C22.5247 12.6898 21.9589 13.2557 21.9589 13.9537V30.282L16.0731 24.3963C15.5795 23.9027 14.7793 23.9027 14.2857 24.3963C13.7921 24.8899 13.7921 25.6901 14.2857 26.1837L22.3291 34.227C22.8226 34.7206 23.6229 34.7206 24.1165 34.227Z" fill="#0450DB"/>
<path d="M52.8288 29.1111V18.0808H55.1232V22.2279H55.1932C55.2937 22.0053 55.4392 21.7791 55.6295 21.5493C55.8234 21.3159 56.0747 21.122 56.3835 20.9676C56.6959 20.8097 57.0837 20.7307 57.5468 20.7307C58.1501 20.7307 58.7066 20.8887 59.2165 21.2046C59.7263 21.517 60.1339 21.9892 60.4391 22.6211C60.7443 23.2495 60.8969 24.0376 60.8969 24.9855C60.8969 25.9083 60.7479 26.6875 60.4498 27.323C60.1554 27.9549 59.7533 28.4343 59.2434 28.761C58.7371 29.0842 58.1698 29.2458 57.5415 29.2458C57.0962 29.2458 56.7174 29.1722 56.405 29.0249C56.0962 28.8777 55.8431 28.6928 55.6456 28.4702C55.4481 28.244 55.2973 28.016 55.1932 27.7862H55.0909V29.1111H52.8288ZM55.0747 24.9748C55.0747 25.4667 55.1429 25.8957 55.2794 26.262C55.4158 26.6282 55.6133 26.9137 55.8718 27.1183C56.1304 27.3194 56.4445 27.4199 56.8144 27.4199C57.1878 27.4199 57.5038 27.3176 57.7623 27.1129C58.0208 26.9047 58.2165 26.6174 58.3493 26.2512C58.4858 25.8814 58.554 25.4559 58.554 24.9748C58.554 24.4972 58.4876 24.0771 58.3547 23.7145C58.2219 23.3518 58.0262 23.0681 57.7677 22.8635C57.5091 22.6588 57.1914 22.5565 56.8144 22.5565C56.4409 22.5565 56.125 22.6552 55.8664 22.8527C55.6115 23.0502 55.4158 23.3303 55.2794 23.6929C55.1429 24.0556 55.0747 24.4828 55.0747 24.9748ZM64.5593 29.2673C64.0315 29.2673 63.5611 29.1757 63.1482 28.9926C62.7353 28.8059 62.4086 28.5312 62.168 28.1686C61.931 27.8023 61.8125 27.3463 61.8125 26.8006C61.8125 26.341 61.8969 25.955 62.0657 25.6426C62.2344 25.3302 62.4642 25.0789 62.7551 24.8886C63.0459 24.6983 63.3762 24.5547 63.7461 24.4577C64.1195 24.3608 64.5109 24.2925 64.9202 24.253C65.4013 24.2028 65.7891 24.1561 66.0835 24.113C66.378 24.0663 66.5916 23.9981 66.7245 23.9083C66.8573 23.8186 66.9237 23.6857 66.9237 23.5098V23.4775C66.9237 23.1364 66.816 22.8725 66.6006 22.6857C66.3887 22.499 66.0871 22.4057 65.6958 22.4057C65.2828 22.4057 64.9543 22.4972 64.7101 22.6804C64.466 22.8599 64.3044 23.0861 64.2254 23.359L62.1034 23.1866C62.2111 22.684 62.4229 22.2495 62.7389 21.8832C63.0549 21.5134 63.4624 21.2298 63.9615 21.0323C64.4642 20.8312 65.0459 20.7307 65.7065 20.7307C66.1661 20.7307 66.606 20.7845 67.0261 20.8922C67.4498 21 67.825 21.1669 68.1517 21.3931C68.4821 21.6193 68.7424 21.9102 68.9327 22.2656C69.123 22.6175 69.2181 23.0394 69.2181 23.5313V29.1111H67.0422V27.9639H66.9776C66.8447 28.2224 66.667 28.4504 66.4444 28.6479C66.2218 28.8418 65.9543 28.9944 65.6419 29.1057C65.3295 29.2134 64.9687 29.2673 64.5593 29.2673ZM65.2164 27.6839C65.5539 27.6839 65.8519 27.6174 66.1105 27.4846C66.369 27.3481 66.5719 27.165 66.7191 26.9352C66.8663 26.7054 66.9399 26.4451 66.9399 26.1543V25.2764C66.8681 25.323 66.7693 25.3661 66.6437 25.4056C66.5216 25.4415 66.3834 25.4756 66.229 25.508C66.0746 25.5367 65.9202 25.5636 65.7658 25.5887C65.6114 25.6103 65.4713 25.63 65.3457 25.648C65.0764 25.6875 64.8412 25.7503 64.6401 25.8365C64.439 25.9227 64.2829 26.0394 64.1715 26.1866C64.0602 26.3302 64.0046 26.5097 64.0046 26.7252C64.0046 27.0375 64.1177 27.2763 64.3439 27.4415C64.5737 27.6031 64.8645 27.6839 65.2164 27.6839ZM70.7707 29.1111V20.8384H73.065V29.1111H70.7707ZM71.9232 19.772C71.5821 19.772 71.2895 19.6589 71.0453 19.4327C70.8048 19.2029 70.6845 18.9282 70.6845 18.6086C70.6845 18.2927 70.8048 18.0216 71.0453 17.7954C71.2895 17.5656 71.5821 17.4507 71.9232 17.4507C72.2643 17.4507 72.5552 17.5656 72.7958 17.7954C73.0399 18.0216 73.162 18.2927 73.162 18.6086C73.162 18.9282 73.0399 19.2029 72.7958 19.4327C72.5552 19.6589 72.2643 19.772 71.9232 19.772ZM76.5929 20.8384L78.1117 23.7306L79.6682 20.8384H82.0218L79.6251 24.9748L82.0865 29.1111H79.7436L78.1117 26.2512L76.5067 29.1111H74.1369L76.5929 24.9748L74.2231 20.8384H76.5929ZM85.4716 29.2673C84.9437 29.2673 84.4734 29.1757 84.0605 28.9926C83.6475 28.8059 83.3208 28.5312 83.0802 28.1686C82.8432 27.8023 82.7248 27.3463 82.7248 26.8006C82.7248 26.341 82.8091 25.955 82.9779 25.6426C83.1466 25.3302 83.3764 25.0789 83.6673 24.8886C83.9581 24.6983 84.2885 24.5547 84.6583 24.4577C85.0317 24.3608 85.4231 24.2925 85.8324 24.253C86.3135 24.2028 86.7013 24.1561 86.9958 24.113C87.2902 24.0663 87.5038 23.9981 87.6367 23.9083C87.7695 23.8186 87.836 23.6857 87.836 23.5098V23.4775C87.836 23.1364 87.7282 22.8725 87.5128 22.6857C87.301 22.499 86.9994 22.4057 86.608 22.4057C86.1951 22.4057 85.8665 22.4972 85.6224 22.6804C85.3782 22.8599 85.2166 23.0861 85.1376 23.359L83.0156 23.1866C83.1233 22.684 83.3352 22.2495 83.6511 21.8832C83.9671 21.5134 84.3746 21.2298 84.8737 21.0323C85.3764 20.8312 85.9581 20.7307 86.6187 20.7307C87.0783 20.7307 87.5182 20.7845 87.9383 20.8922C88.362 21 88.7372 21.1669 89.0639 21.3931C89.3943 21.6193 89.6546 21.9102 89.8449 22.2656C90.0352 22.6175 90.1303 23.0394 90.1303 23.5313V29.1111H87.9545V27.9639H87.8898C87.757 28.2224 87.5792 28.4504 87.3566 28.6479C87.134 28.8418 86.8665 28.9944 86.5541 29.1057C86.2417 29.2134 85.8809 29.2673 85.4716 29.2673ZM86.1286 27.6839C86.4661 27.6839 86.7642 27.6174 87.0227 27.4846C87.2812 27.3481 87.4841 27.165 87.6313 26.9352C87.7785 26.7054 87.8521 26.4451 87.8521 26.1543V25.2764C87.7803 25.323 87.6816 25.3661 87.5559 25.4056C87.4338 25.4415 87.2956 25.4756 87.1412 25.508C86.9868 25.5367 86.8324 25.5636 86.678 25.5887C86.5236 25.6103 86.3836 25.63 86.2579 25.648C85.9886 25.6875 85.7534 25.7503 85.5523 25.8365C85.3513 25.9227 85.1951 26.0394 85.0838 26.1866C84.9725 26.3302 84.9168 26.5097 84.9168 26.7252C84.9168 27.0375 85.0299 27.2763 85.2561 27.4415C85.4859 27.6031 85.7768 27.6839 86.1286 27.6839ZM91.6829 29.1111V20.8384H93.9073V22.2818H93.9934C94.1442 21.7684 94.3974 21.3806 94.7528 21.1185C95.1083 20.8527 95.5176 20.7199 95.9808 20.7199C96.0957 20.7199 96.2196 20.7271 96.3525 20.7414C96.4853 20.7558 96.602 20.7756 96.7025 20.8007V22.8366C96.5948 22.8042 96.4458 22.7755 96.2555 22.7504C96.0652 22.7252 95.8911 22.7127 95.7331 22.7127C95.3956 22.7127 95.0939 22.7863 94.8282 22.9335C94.5661 23.0771 94.3579 23.2782 94.2035 23.5367C94.0527 23.7952 93.9773 24.0933 93.9773 24.4308V29.1111H91.6829ZM104.682 29.2727C103.834 29.2727 103.106 29.0932 102.495 28.7341C101.888 28.3715 101.422 27.8688 101.095 27.2261C100.772 26.5833 100.61 25.8437 100.61 25.0071C100.61 24.1597 100.773 23.4164 101.1 22.7773C101.431 22.1346 101.899 21.6337 102.506 21.2746C103.113 20.912 103.834 20.7307 104.671 20.7307C105.393 20.7307 106.025 20.8617 106.567 21.1238C107.109 21.386 107.538 21.754 107.854 22.2279C108.17 22.7019 108.344 23.2584 108.377 23.8976H106.211C106.15 23.4847 105.989 23.1525 105.727 22.9012C105.468 22.6463 105.129 22.5188 104.709 22.5188C104.353 22.5188 104.043 22.6157 103.777 22.8096C103.515 22.9999 103.31 23.2782 103.163 23.6444C103.016 24.0107 102.942 24.4541 102.942 24.9748C102.942 25.5026 103.014 25.9514 103.158 26.3212C103.305 26.6911 103.511 26.9729 103.777 27.1668C104.043 27.3607 104.353 27.4576 104.709 27.4576C104.971 27.4576 105.206 27.4038 105.414 27.2961C105.626 27.1884 105.8 27.0322 105.937 26.8275C106.077 26.6192 106.168 26.3697 106.211 26.0789H108.377C108.341 26.7108 108.168 27.2673 107.86 27.7485C107.554 28.226 107.132 28.5995 106.594 28.8687C106.055 29.138 105.418 29.2727 104.682 29.2727ZM114.923 25.5887V20.8384H117.218V29.1111H115.015V27.6085H114.929C114.742 28.0932 114.431 28.4828 113.997 28.7772C113.566 29.0716 113.04 29.2188 112.419 29.2188C111.866 29.2188 111.379 29.0932 110.959 28.8418C110.539 28.5905 110.211 28.2332 109.974 27.77C109.74 27.3068 109.622 26.7521 109.618 26.1058V20.8384H111.912V25.6965C111.916 26.1848 112.047 26.5708 112.306 26.8544C112.564 27.1381 112.911 27.2799 113.345 27.2799C113.622 27.2799 113.88 27.2171 114.121 27.0914C114.361 26.9621 114.555 26.7718 114.702 26.5205C114.853 26.2692 114.927 25.9586 114.923 25.5887ZM118.825 29.1111V20.8384H121.05V22.2818H121.136C121.287 21.7684 121.54 21.3806 121.895 21.1185C122.251 20.8527 122.66 20.7199 123.123 20.7199C123.238 20.7199 123.362 20.7271 123.495 20.7414C123.628 20.7558 123.744 20.7756 123.845 20.8007V22.8366C123.737 22.8042 123.588 22.7755 123.398 22.7504C123.208 22.7252 123.033 22.7127 122.875 22.7127C122.538 22.7127 122.236 22.7863 121.971 22.9335C121.709 23.0771 121.5 23.2782 121.346 23.5367C121.195 23.7952 121.12 24.0933 121.12 24.4308V29.1111H118.825ZM124.804 29.1111V20.8384H127.028V22.2818H127.114C127.265 21.7684 127.518 21.3806 127.874 21.1185C128.229 20.8527 128.638 20.7199 129.102 20.7199C129.217 20.7199 129.34 20.7271 129.473 20.7414C129.606 20.7558 129.723 20.7756 129.823 20.8007V22.8366C129.716 22.8042 129.567 22.7755 129.376 22.7504C129.186 22.7252 129.012 22.7127 128.854 22.7127C128.516 22.7127 128.215 22.7863 127.949 22.9335C127.687 23.0771 127.479 23.2782 127.324 23.5367C127.173 23.7952 127.098 24.0933 127.098 24.4308V29.1111H124.804ZM130.782 29.1111V20.8384H133.076V29.1111H130.782ZM131.111 19.772L132.252 17.3214H134.374L132.732 19.772H131.111ZM138.425 29.2727C137.577 29.2727 136.848 29.0932 136.238 28.7341C135.631 28.3715 135.164 27.8688 134.838 27.2261C134.515 26.5833 134.353 25.8437 134.353 25.0071C134.353 24.1597 134.516 23.4164 134.843 22.7773C135.173 22.1346 135.642 21.6337 136.249 21.2746C136.856 20.912 137.577 20.7307 138.414 20.7307C139.136 20.7307 139.768 20.8617 140.31 21.1238C140.852 21.386 141.281 21.754 141.597 22.2279C141.913 22.7019 142.087 23.2584 142.119 23.8976H139.954C139.893 23.4847 139.732 23.1525 139.47 22.9012C139.211 22.6463 138.872 22.5188 138.452 22.5188C138.096 22.5188 137.786 22.6157 137.52 22.8096C137.258 22.9999 137.053 23.2782 136.906 23.6444C136.759 24.0107 136.685 24.4541 136.685 24.9748C136.685 25.5026 136.757 25.9514 136.901 26.3212C137.048 26.6911 137.254 26.9729 137.52 27.1668C137.786 27.3607 138.096 27.4576 138.452 27.4576C138.714 27.4576 138.949 27.4038 139.157 27.2961C139.369 27.1884 139.543 27.0322 139.68 26.8275C139.82 26.6192 139.911 26.3697 139.954 26.0789H142.119C142.084 26.7108 141.911 27.2673 141.602 27.7485C141.297 28.226 140.875 28.5995 140.337 28.8687C139.798 29.138 139.161 29.2727 138.425 29.2727ZM148.666 25.5887V20.8384H150.96V29.1111H148.758V27.6085H148.671C148.485 28.0932 148.174 28.4828 147.74 28.7772C147.309 29.0716 146.783 29.2188 146.162 29.2188C145.609 29.2188 145.122 29.0932 144.702 28.8418C144.282 28.5905 143.953 28.2332 143.716 27.77C143.483 27.3068 143.365 26.7521 143.361 26.1058V20.8384H145.655V25.6965C145.659 26.1848 145.79 26.5708 146.048 26.8544C146.307 27.1381 146.654 27.2799 147.088 27.2799C147.364 27.2799 147.623 27.2171 147.864 27.0914C148.104 26.9621 148.298 26.7718 148.445 26.5205C148.596 26.2692 148.67 25.9586 148.666 25.5887ZM154.863 18.0808V29.1111H152.568V18.0808H154.863ZM160.211 29.2727C159.374 29.2727 158.651 29.095 158.04 28.7395C157.433 28.3804 156.965 27.8813 156.635 27.2422C156.304 26.5995 156.139 25.8544 156.139 25.0071C156.139 24.1525 156.304 23.4057 156.635 22.7665C156.965 22.1238 157.433 21.6247 158.04 21.2693C158.651 20.9102 159.374 20.7307 160.211 20.7307C161.047 20.7307 161.769 20.9102 162.376 21.2693C162.986 21.6247 163.457 22.1238 163.787 22.7665C164.117 23.4057 164.283 24.1525 164.283 25.0071C164.283 25.8544 164.117 26.5995 163.787 27.2422C163.457 27.8813 162.986 28.3804 162.376 28.7395C161.769 29.095 161.047 29.2727 160.211 29.2727ZM160.222 27.4953C160.602 27.4953 160.92 27.3876 161.175 27.1722C161.43 26.9532 161.622 26.6551 161.751 26.2781C161.884 25.9011 161.95 25.472 161.95 24.9909C161.95 24.5098 161.884 24.0807 161.751 23.7037C161.622 23.3267 161.43 23.0286 161.175 22.8096C160.92 22.5906 160.602 22.4811 160.222 22.4811C159.837 22.4811 159.514 22.5906 159.252 22.8096C158.994 23.0286 158.798 23.3267 158.665 23.7037C158.536 24.0807 158.471 24.5098 158.471 24.9909C158.471 25.472 158.536 25.9011 158.665 26.2781C158.798 26.6551 158.994 26.9532 159.252 27.1722C159.514 27.3876 159.837 27.4953 160.222 27.4953Z" fill="#000000"/>
</svg>
