<svg width="47" height="48" viewBox="0 0 47 48" fill="none" xmlns="http://www.w3.org/2000/svg">
<path d="M9.21504 0.032959C4.15232 0.032959 0.00878906 4.17639 0.00878906 9.23918V37.8077C0.00878906 42.8704 4.15223 47.0124 9.21504 47.0124H37.7837C42.8464 47.0124 46.9884 42.8705 46.9884 37.8077V9.23918C46.9884 4.17648 42.8464 0.032959 37.7837 0.032959H9.21504ZM11.5305 7.78552C13.958 7.78552 15.4532 9.3791 15.4994 11.4738C15.4994 13.5223 13.9579 15.1607 11.4836 15.1607H11.4381C9.05679 15.1607 7.51767 13.5224 7.51767 11.4738C7.51767 9.37914 9.10337 7.78552 11.5305 7.78552H11.5305ZM32.4494 17.5761C37.1179 17.5761 40.6175 20.6274 40.6175 27.1846V39.4257H33.5227V28.0053C33.5227 25.1355 32.4959 23.1775 29.9283 23.1775C27.9682 23.1775 26.7999 24.4972 26.287 25.772C26.0996 26.2281 26.0535 26.8651 26.0535 27.5031V39.4257H18.9587C18.9587 39.4257 19.0518 20.0799 18.9587 18.0767H26.055V21.1C26.9978 19.6453 28.6842 17.576 32.4494 17.576V17.5761ZM7.93616 18.0783H15.031V39.4258H7.93616V18.0783V18.0783Z" fill="#fff"/>
</svg>
