<svg width="32" height="37" viewBox="0 0 32 37" fill="none" xmlns="http://www.w3.org/2000/svg">
<path d="M11.2155 10.285L11.3155 12.585L9.71547 15.585L7.21547 20.485L6.71547 24.585L8.51547 30.385L12.6155 32.685H18.8155L24.6155 28.285L27.2155 21.385L21.2155 14.085L19.5155 9.98501L11.2155 10.285Z" fill="#ECEFF1"/>
<path d="M25.4155 15.985C23.8155 13.685 22.5155 12.285 21.8155 9.38501C21.1155 6.48501 22.0155 7.28501 21.4155 4.78501C21.1155 3.48501 20.6155 2.58501 20.1155 1.88501C19.5155 1.18501 18.8155 0.785012 18.4155 0.685012C17.5155 0.185012 15.4155 -0.614988 12.8155 0.785012C10.1155 2.18501 10.4155 5.18501 10.9155 11.285C10.9155 11.685 10.8155 12.185 10.6155 12.585C10.2155 13.485 9.51547 14.285 8.91547 14.985C8.21547 15.985 7.51547 16.985 7.01547 18.085C5.81547 20.385 4.71547 23.285 5.01547 24.385C5.51547 24.285 11.8155 33.885 11.8155 34.085C12.2155 33.985 13.9155 33.985 15.4155 33.985C17.5155 33.885 18.7155 33.785 20.4155 34.185C20.4155 33.885 20.3155 33.585 20.3155 33.285C20.3155 32.685 20.4155 32.185 20.5155 31.485C20.6155 30.985 20.7155 30.485 20.8155 29.885C19.8155 30.785 18.0155 31.785 16.3155 32.085C14.8155 32.385 12.3155 31.885 11.1155 30.385C11.2155 30.385 11.4155 30.385 11.5155 30.285C11.8155 30.185 12.1155 30.085 12.2155 29.885C12.5155 29.385 12.3155 28.885 12.1155 28.585C11.9155 28.285 10.4155 27.185 9.71547 26.585C9.01547 25.985 8.61547 25.685 8.21547 25.285L7.41547 24.485C7.21547 24.285 7.11547 24.085 7.01547 23.985C6.81547 23.485 6.71547 22.885 6.81547 22.085C6.91547 20.985 7.31547 20.085 7.81547 19.085C8.01547 18.685 8.51547 17.885 8.51547 17.885C8.51547 17.885 6.81547 22.085 7.71547 23.385C7.71547 23.385 7.81547 22.085 8.21547 20.785C8.51547 19.885 9.01547 18.585 9.61547 17.885C10.2155 17.185 11.7155 14.585 11.8155 12.985C11.8155 12.285 11.9155 11.585 11.9155 11.085C11.5155 10.685 18.5155 9.68501 18.9155 10.785C19.0155 11.185 20.4155 14.785 21.2155 16.685C21.6155 17.585 22.1155 18.385 22.4155 19.385C22.7155 20.485 22.9155 21.985 22.9155 23.485C22.9155 23.785 22.9155 24.285 22.8155 24.785C23.0155 24.785 26.9155 20.585 22.3155 17.085C22.3155 17.085 25.1155 18.385 25.2155 20.985C25.3155 23.085 24.4155 24.785 24.2155 25.085C24.3155 25.085 26.3155 25.985 26.4155 25.985C26.8155 25.985 27.6155 25.685 27.6155 25.685C27.7155 25.385 28.0155 24.585 28.0155 24.285C28.7155 21.985 27.0155 18.285 25.4155 15.985Z" fill="#263238"/>
<path d="M12.7155 9.38501C13.4334 9.38501 14.0155 8.48958 14.0155 7.38501C14.0155 6.28044 13.4334 5.38501 12.7155 5.38501C11.9975 5.38501 11.4155 6.28044 11.4155 7.38501C11.4155 8.48958 11.9975 9.38501 12.7155 9.38501Z" fill="#ECEFF1"/>
<path d="M17.2155 9.58501C18.1544 9.58501 18.9155 8.55527 18.9155 7.28501C18.9155 6.01476 18.1544 4.98501 17.2155 4.98501C16.2766 4.98501 15.5155 6.01476 15.5155 7.28501C15.5155 8.55527 16.2766 9.58501 17.2155 9.58501Z" fill="#ECEFF1"/>
<path d="M13.4424 7.52168C13.3593 6.86417 12.981 6.37045 12.5974 6.41893C12.2139 6.46741 11.9703 7.03973 12.0534 7.69724C12.1366 8.35475 12.5149 8.84847 12.8984 8.79999C13.2819 8.75151 13.5255 8.17919 13.4424 7.52168Z" fill="#212121"/>
<path d="M17.1155 8.98501C17.6678 8.98501 18.1155 8.40298 18.1155 7.68501C18.1155 6.96704 17.6678 6.38501 17.1155 6.38501C16.5632 6.38501 16.1155 6.96704 16.1155 7.68501C16.1155 8.40298 16.5632 8.98501 17.1155 8.98501Z" fill="#212121"/>
<path d="M30.4155 29.685C30.0155 29.485 29.3155 29.185 28.7155 28.285C28.4155 27.785 28.5155 26.385 28.0155 25.785C27.7155 25.385 27.3155 25.585 27.2155 25.585C26.3155 25.785 24.2155 27.185 22.8155 25.585C22.6155 25.385 22.3155 25.085 21.8155 25.085C21.3155 25.085 21.1155 25.285 20.9155 25.685C20.7155 26.085 20.7155 26.385 20.7155 27.385C20.7155 28.185 20.7155 29.085 20.6155 29.785C20.4155 31.485 20.1155 32.485 20.1155 33.485C20.1155 34.585 20.4155 35.285 20.8155 35.585C21.1155 35.885 21.6155 36.085 22.7155 36.085C23.8155 36.085 24.5155 35.685 25.2155 34.985C25.7155 34.485 26.1155 34.285 27.5155 33.285C28.6155 32.585 30.3155 31.685 30.6155 31.385C30.8155 31.185 31.1155 31.085 31.1155 30.485C31.1155 29.985 30.7155 29.785 30.4155 29.685ZM10.3155 29.985C9.31547 28.385 9.21547 28.085 8.51547 27.085C7.91547 26.085 6.61547 24.185 5.81547 24.185C5.21547 24.185 4.91547 24.485 4.51547 24.885C4.11547 25.285 3.71547 26.185 3.01547 26.685C2.41547 27.185 0.71547 27.085 0.31547 27.685C-0.0845301 28.285 0.71547 29.185 0.71547 30.685C0.71547 31.285 0.21547 31.685 0.11547 32.085C0.0154701 32.585 -0.0845299 32.885 0.11547 33.285C0.51547 33.885 1.01547 34.085 4.41547 34.785C6.21547 35.185 7.91547 36.185 9.01547 36.285C10.1155 36.385 12.0155 36.285 12.0155 33.585C12.1155 31.985 11.2155 31.585 10.3155 29.985ZM12.2155 11.885C11.6155 11.485 11.1155 11.085 11.1155 10.485C11.1155 9.88501 11.5155 9.68501 12.1155 9.18501C12.2155 9.08501 13.3155 8.08501 14.4155 8.08501C15.5155 8.08501 16.8155 8.78501 17.3155 8.98501C18.2155 9.18501 19.1155 9.38501 19.0155 10.085C18.9155 11.085 18.8155 11.285 17.8155 11.785C17.1155 11.985 15.8155 13.085 14.9155 13.085C14.5155 13.085 13.9155 13.085 13.5155 12.985C13.2155 12.885 12.7155 12.385 12.2155 11.885Z" fill="#FFC107"/>
<path d="M12.0155 11.085C12.2155 11.285 12.5155 11.485 12.8155 11.585C13.0155 11.685 13.3155 11.785 13.3155 11.785H14.2155C14.7155 11.785 15.4155 11.585 16.1155 11.185C16.8155 10.885 16.9155 10.685 17.4155 10.485C17.9155 10.185 18.4155 9.88501 18.2155 9.78501C18.0155 9.68501 17.8155 9.78501 17.1155 10.185C16.5155 10.585 16.0155 10.785 15.4155 11.085C15.1155 11.185 14.7155 11.385 14.4155 11.385H13.5155C13.2155 11.385 13.0155 11.285 12.7155 11.185C12.5155 11.085 12.4155 10.985 12.3155 10.985C12.1155 10.885 11.7155 10.485 11.5155 10.385C11.5155 10.385 11.3155 10.385 11.4155 10.485L12.0155 11.085ZM15.0155 8.88501C15.1155 9.08501 15.3155 9.08501 15.4155 9.18501C15.5155 9.28501 15.6155 9.28501 15.6155 9.28501C15.7155 9.18501 15.6155 8.98501 15.5155 8.98501C15.5155 8.78501 15.0155 8.78501 15.0155 8.88501ZM13.4155 9.08501C13.4155 9.18501 13.6155 9.28501 13.6155 9.18501C13.7155 9.08501 13.8155 8.98501 13.9155 8.98501C14.1155 8.88501 14.0155 8.78501 13.7155 8.78501C13.5155 8.88501 13.5155 8.98501 13.4155 9.08501Z" fill="#634703"/>
<path d="M23.1155 26.785V27.085C23.3155 27.485 23.8155 27.585 24.2155 27.585C24.8155 27.585 25.4155 27.185 25.7155 26.785C25.7155 26.685 25.8155 26.585 25.9155 26.485C26.1155 26.185 26.2155 25.985 26.3155 25.885C26.3155 25.885 26.2155 25.785 26.2155 25.685C26.1155 25.485 25.8155 25.285 25.4155 25.185C25.1155 25.085 24.6155 24.985 24.4155 24.985C23.5155 24.885 23.0155 25.185 22.7155 25.485C22.7155 25.485 22.8155 25.485 22.8155 25.585C23.0155 25.785 23.1155 25.985 23.1155 26.285C23.2155 26.485 23.1155 26.585 23.1155 26.785Z" fill="#455A64"/>
</svg>
