<svg width="22" height="23" viewBox="0 0 22 23" fill="none" xmlns="http://www.w3.org/2000/svg">
<path d="M8.25077 0.381353C8.385 0.544461 8.46724 0.744074 8.48685 0.9544C8.50646 1.16473 8.46254 1.3761 8.36078 1.56121C7.56576 3.02088 7.15058 4.65703 7.15342 6.31916C7.15342 11.8486 11.6611 16.326 17.2166 16.326C17.9413 16.326 18.6467 16.2503 19.3247 16.1059C19.5325 16.0609 19.749 16.0782 19.9471 16.1554C20.1452 16.2327 20.3161 16.3666 20.4385 16.5405C20.5678 16.7212 20.6337 16.9397 20.626 17.1617C20.6183 17.3838 20.5374 17.5971 20.3959 17.7685C19.3174 19.0933 17.9568 20.1608 16.4133 20.893C14.8698 21.6253 13.1824 22.0038 11.4741 22.0011C5.13473 22.0011 0 16.8939 0 10.6013C0 5.86537 2.90702 1.80324 7.04616 0.0815753C7.25234 -0.00556406 7.48123 -0.023449 7.69845 0.0306071C7.91567 0.0846631 8.10948 0.207741 8.25077 0.381353Z" fill="black" fill-opacity="0.8"/>
<path d="M14.8431 4.32797C14.8629 4.26842 14.9008 4.2166 14.9517 4.17987C15.0025 4.14314 15.0637 4.12337 15.1264 4.12337C15.1891 4.12337 15.2503 4.14314 15.3011 4.17987C15.352 4.2166 15.39 4.26842 15.4097 4.32797L15.9419 5.92587C16.1798 6.63819 16.7381 7.19649 17.4504 7.43439L19.0483 7.96656C19.1078 7.98628 19.1597 8.02427 19.1964 8.07512C19.2331 8.12597 19.2529 8.18711 19.2529 8.24984C19.2529 8.31257 19.2331 8.3737 19.1964 8.42456C19.1597 8.47541 19.1078 8.5134 19.0483 8.53312L17.4504 9.06529C17.0991 9.18234 16.7798 9.3796 16.518 9.64143C16.2562 9.90327 16.0589 10.2225 15.9419 10.5738L15.4097 12.1717C15.39 12.2313 15.352 12.2831 15.3011 12.3198C15.2503 12.3565 15.1891 12.3763 15.1264 12.3763C15.0637 12.3763 15.0025 12.3565 14.9517 12.3198C14.9008 12.2831 14.8629 12.2313 14.8431 12.1717L14.311 10.5738C14.1939 10.2225 13.9967 9.90327 13.7348 9.64143C13.473 9.3796 13.1538 9.18234 12.8024 9.06529L11.2045 8.53312C11.145 8.5134 11.0932 8.47541 11.0564 8.42456C11.0197 8.3737 10.9999 8.31257 10.9999 8.24984C10.9999 8.18711 11.0197 8.12597 11.0564 8.07512C11.0932 8.02427 11.145 7.98628 11.2045 7.96656L12.8024 7.43439C13.1538 7.31734 13.473 7.12008 13.7348 6.85824C13.9967 6.59641 14.1939 6.27718 14.311 5.92587L14.8431 4.32797ZM19.0634 0.135205C19.077 0.0960503 19.1024 0.0620979 19.1362 0.0380684C19.1699 0.014039 19.2104 0.00112665 19.2518 0.00112665C19.2932 0.00112665 19.3337 0.014039 19.3674 0.0380684C19.4012 0.0620979 19.4266 0.0960503 19.4402 0.135205L19.795 1.19955C19.9531 1.67535 20.3258 2.04801 20.8016 2.20615L21.8659 2.56093C21.9051 2.57451 21.939 2.59994 21.9631 2.63371C21.9871 2.66747 22 2.70788 22 2.74932C22 2.79077 21.9871 2.83118 21.9631 2.86494C21.939 2.89871 21.9051 2.92414 21.8659 2.93772L20.8016 3.2925C20.5671 3.3705 20.354 3.50209 20.1793 3.67683C20.0046 3.85156 19.873 4.06462 19.795 4.2991L19.4402 5.36344C19.4266 5.4026 19.4012 5.43655 19.3674 5.46058C19.3337 5.48461 19.2932 5.49752 19.2518 5.49752C19.2104 5.49752 19.1699 5.48461 19.1362 5.46058C19.1024 5.43655 19.077 5.4026 19.0634 5.36344L18.7086 4.2991C18.6306 4.06462 18.499 3.85156 18.3243 3.67683C18.1496 3.50209 17.9365 3.3705 17.702 3.2925L16.6377 2.93772C16.5985 2.92414 16.5646 2.89871 16.5405 2.86494C16.5165 2.83118 16.5036 2.79077 16.5036 2.74932C16.5036 2.70788 16.5165 2.66747 16.5405 2.63371C16.5646 2.59994 16.5985 2.57451 16.6377 2.56093L17.702 2.20615C18.1778 2.04801 18.5505 1.67535 18.7086 1.19955L19.0634 0.13658V0.135205Z" fill="black" fill-opacity="0.8"/>
</svg>
