<svg width="158" height="141" viewBox="0 0 158 141" fill="none" xmlns="http://www.w3.org/2000/svg">
<path d="M129.629 45.7706C127.952 45.1953 126.261 44.6624 124.558 44.1724C124.844 43.0031 125.108 41.848 125.341 40.7132C129.18 22.0784 126.671 7.06575 118.099 2.12287C109.88 -2.61569 96.4393 2.32534 82.8648 14.1391C81.527 15.3055 80.2189 16.5055 78.9417 17.738C78.0867 16.9184 77.2166 16.1148 76.3318 15.3275C62.105 2.69581 47.845 -2.628 39.2824 2.32903C31.0711 7.08236 28.6397 21.1953 32.0958 38.856C32.4396 40.6051 32.8278 42.3452 33.2601 44.0745C31.2416 44.6481 29.2938 45.2586 27.4298 45.9084C10.7501 51.7239 0.0981445 60.8374 0.0981445 70.2905C0.0981445 80.0538 11.5335 89.8466 28.9061 95.7846C30.3146 96.264 31.7347 96.7083 33.1653 97.1169C32.7007 98.9795 32.2882 100.855 31.9284 102.74C28.6335 120.095 31.2065 133.874 39.3956 138.597C47.8536 143.475 62.0496 138.462 75.8721 126.378C76.9929 125.396 78.0891 124.386 79.1595 123.349C80.5427 124.683 81.9627 125.979 83.4181 127.234C96.8079 138.756 110.032 143.408 118.213 138.672C126.663 133.78 129.409 118.978 125.844 100.968C125.563 99.5572 125.248 98.1532 124.899 96.7575C125.896 96.4621 126.874 96.1581 127.828 95.8418C145.889 89.8583 157.64 80.1842 157.64 70.2905C157.64 60.8029 146.644 51.6279 129.629 45.7706V45.7706ZM125.712 89.454C124.85 89.7389 123.967 90.014 123.066 90.2817C121.072 83.9696 118.381 77.258 115.088 70.3231C118.231 63.5537 120.818 56.9277 122.756 50.6568C124.367 51.1233 125.931 51.615 127.439 52.1338C142.017 57.153 150.91 64.5728 150.91 70.2905C150.91 76.3805 141.306 84.2865 125.712 89.454V89.454ZM119.242 102.275C120.818 110.238 121.043 117.439 119.999 123.068C119.061 128.126 117.174 131.497 114.84 132.848C109.876 135.722 99.2584 131.987 87.8077 122.133C86.4541 120.966 85.1331 119.761 83.8464 118.52C88.2859 113.666 92.7223 108.022 97.0522 101.753C104.668 101.078 111.864 99.9724 118.389 98.464C118.71 99.7607 118.995 101.032 119.242 102.275V102.275ZM53.8076 132.352C48.957 134.064 45.0936 134.113 42.7581 132.767C37.7888 129.901 35.7229 118.837 38.5408 103.996C38.8758 102.242 39.2593 100.498 39.691 98.7656C46.1441 100.193 53.287 101.22 60.921 101.839C65.2805 107.973 69.8449 113.61 74.445 118.547C73.4674 119.493 72.4666 120.415 71.4437 121.311C65.3309 126.654 59.2059 130.445 53.8076 132.352V132.352ZM31.0834 89.4164C23.4014 86.7905 17.0573 83.3782 12.7089 79.6544C8.8011 76.3085 6.82875 72.9859 6.82875 70.2905C6.82875 64.5538 15.3809 57.2367 29.6452 52.2636C31.3764 51.6606 33.1881 51.0913 35.0681 50.5571C37.0399 56.9696 39.6258 63.6743 42.7464 70.4542C39.5851 77.3343 36.9623 84.1462 34.9715 90.6343C33.6657 90.2603 32.3693 89.8542 31.0834 89.4164V89.4164ZM38.7008 37.563C35.7401 22.4322 37.7063 11.0184 42.6547 8.15377C47.925 5.10263 59.5794 9.45287 71.8634 20.3602C72.6644 21.0731 73.4524 21.8004 74.2271 22.5418C69.6498 27.457 65.1272 33.0528 60.8065 39.1501C53.3971 39.8369 46.3047 40.9397 39.7839 42.4173C39.3822 40.8088 39.021 39.1904 38.7008 37.5636V37.563ZM106.657 54.3437C105.117 51.6833 103.52 49.0564 101.866 46.4647C106.893 47.1005 111.709 47.9442 116.232 48.9756C114.874 53.3277 113.182 57.8773 111.19 62.542C109.734 59.7793 108.223 57.046 106.657 54.3437V54.3437ZM78.9448 27.3517C82.0488 30.7149 85.1578 34.4694 88.2157 38.5433C82.0125 38.2504 75.799 38.2492 69.5956 38.5397C72.6566 34.5033 75.7921 30.7536 78.9448 27.3517ZM51.0543 54.3898C49.5086 57.0704 48.0257 59.7867 46.6068 62.5365C44.6474 57.8884 42.9704 53.3178 41.6012 48.9042C46.0961 47.8986 50.8894 47.0765 55.884 46.4524C54.2122 49.0599 52.6019 51.7062 51.0543 54.3892V54.3898ZM56.0273 94.6073C50.8672 94.0313 46.0019 93.2516 41.5083 92.2731C42.8991 87.7807 44.6129 83.1129 46.6148 78.3651C48.0394 81.1169 49.5284 83.8349 51.0808 86.5167C52.6771 89.2737 54.3301 91.974 56.0273 94.6073ZM79.1306 113.703C75.9404 110.262 72.7588 106.454 69.6516 102.359C72.6683 102.478 75.7435 102.538 78.8691 102.538C82.0802 102.538 85.2544 102.466 88.3788 102.327C85.3111 106.496 82.2138 110.309 79.1306 113.703ZM111.253 78.1227C113.359 82.9228 115.134 87.5659 116.543 91.9814C111.976 93.0239 107.044 93.8633 101.847 94.4867C103.513 91.847 105.125 89.1744 106.684 86.4705C108.269 83.7222 109.792 80.9388 111.253 78.1227V78.1227ZM100.854 83.108C98.4678 87.2535 95.9472 91.3204 93.2965 95.3021C88.4949 95.6422 83.6827 95.8111 78.8691 95.8086C73.9662 95.8086 69.1975 95.656 64.6054 95.3581C61.8855 91.3856 59.3168 87.3116 56.9049 83.1449H56.9055C54.505 79.0003 52.2627 74.7659 50.1835 70.4511C52.2574 66.1353 54.4929 61.8989 56.8852 57.7511L56.8846 57.7518C59.276 53.6029 61.8242 49.5463 64.5235 45.5909C69.2086 45.2364 74.013 45.0518 78.8684 45.0518H78.8691C83.7467 45.0518 88.5573 45.2383 93.2411 45.5952C95.9132 49.5447 98.445 53.5873 100.832 57.7155C103.232 61.8541 105.497 66.0698 107.624 70.3557C105.519 74.6855 103.261 78.939 100.854 83.108V83.108ZM114.738 7.95315C120.013 10.9957 122.064 23.2649 118.75 39.3544C118.538 40.3809 118.301 41.4265 118.042 42.4868C111.505 40.9779 104.408 39.856 96.9771 39.1587C92.6484 32.9943 88.1628 27.3899 83.6599 22.5381C84.84 21.4005 86.0482 20.2925 87.2834 19.2149C98.9144 9.09348 109.785 5.09709 114.738 7.95315V7.95315ZM78.8691 56.2225C86.6385 56.2225 92.9371 62.5211 92.9371 70.2905C92.9371 78.0599 86.6385 84.3585 78.8691 84.3585C71.0997 84.3585 64.8011 78.0599 64.8011 70.2905C64.8011 62.5211 71.0997 56.2225 78.8691 56.2225V56.2225Z" fill="#00D8FF"/>
</svg>
