<svg width="47" height="47" viewBox="0 0 47 47" fill="none" xmlns="http://www.w3.org/2000/svg">
<path fill-rule="evenodd" clip-rule="evenodd" d="M47 23.5C47 36.4779 36.4779 47 23.5 47C10.5221 47 0 36.4779 0 23.5C0 10.5221 10.5221 0 23.5 0C36.4779 0 47 10.5221 47 23.5ZM24.3421 17.3489C22.0567 18.2987 17.4879 20.2668 10.6377 23.2513C9.52533 23.6939 8.94175 24.1267 8.88888 24.5497C8.79879 25.2664 9.69571 25.5484 10.9138 25.9303C11.0802 25.9832 11.2526 26.036 11.4288 26.0948C12.6293 26.4845 14.243 26.9408 15.0811 26.9584C15.8429 26.9741 16.6928 26.6608 17.6309 26.0184C24.0307 21.6964 27.3344 19.5128 27.542 19.4658C27.6889 19.4325 27.8925 19.3895 28.0296 19.5128C28.1667 19.6343 28.153 19.8653 28.1393 19.928C28.0492 20.306 24.536 23.5744 22.7147 25.2664C22.1468 25.7932 21.7453 26.1673 21.6631 26.2534C21.479 26.4434 21.291 26.6255 21.1108 26.7998C19.9946 27.873 19.1603 28.6798 21.1578 29.9958C22.1174 30.6283 22.8851 31.1512 23.6508 31.6721C24.487 32.242 25.3213 32.8099 26.4023 33.5188C26.6764 33.699 26.9388 33.885 27.1954 34.0672C28.1687 34.7624 29.044 35.3851 30.125 35.2872C30.7517 35.2285 31.4019 34.639 31.7309 32.8785C32.5083 28.715 34.0397 19.6989 34.3942 15.982C34.4158 15.6734 34.4026 15.3633 34.355 15.0576C34.3265 14.8107 34.2063 14.5836 34.0182 14.4212C33.7382 14.192 33.3034 14.1431 33.1076 14.147C32.2244 14.1627 30.8692 14.6346 24.3421 17.3489Z" fill="#ffffff"/>
</svg>
