<svg width="53" height="11" viewBox="0 0 53 11" fill="none" xmlns="http://www.w3.org/2000/svg">
<path d="M1 7.75757H9.38289" stroke="#AA0900" stroke-width="1.04428" stroke-linecap="round"/>
<path fill-rule="evenodd" clip-rule="evenodd" d="M25.0971 0C24.232 0 23.5307 0.70131 23.5307 1.56642V2.82949H22.2676C21.4025 2.82949 20.7012 3.5308 20.7012 4.39591V8.90953C20.7012 9.77465 21.4025 10.476 22.2676 10.476H26.7812C27.6463 10.476 28.3476 9.77465 28.3476 8.90953V7.64647H29.6107C30.4758 7.64647 31.1771 6.94516 31.1771 6.08004V1.56642C31.1771 0.701311 30.4758 0 29.6107 0H25.0971ZM28.3476 6.60218H29.6107C29.8991 6.60218 30.1328 6.36841 30.1328 6.08004V1.56642C30.1328 1.27805 29.8991 1.04428 29.6107 1.04428H25.0971C24.8087 1.04428 24.5749 1.27805 24.5749 1.56642V2.82949H26.7812C27.6463 2.82949 28.3476 3.5308 28.3476 4.39591V6.60218ZM21.7455 4.39591C21.7455 4.10754 21.9792 3.87377 22.2676 3.87377H26.7812C27.0696 3.87377 27.3034 4.10754 27.3034 4.39591V8.90953C27.3034 9.1979 27.0696 9.43167 26.7812 9.43167H22.2676C21.9792 9.43167 21.7455 9.1979 21.7455 8.90953V4.39591Z" fill="#D1A300"/>
<path fill-rule="evenodd" clip-rule="evenodd" d="M42.6495 0.373854C42.4449 0.578461 42.4449 0.910196 42.6495 1.1148L47.032 5.49729L42.6996 9.82974C42.495 10.0343 42.495 10.3661 42.6996 10.5707C42.9042 10.7753 43.2359 10.7753 43.4405 10.5707L47.773 6.23824L52.0554 10.5206C52.26 10.7253 52.5917 10.7253 52.7963 10.5206C53.0009 10.316 53.0009 9.9843 52.7963 9.77969L48.5139 5.49729L52.8464 1.16485C53.051 0.96024 53.051 0.628506 52.8464 0.423898C52.6418 0.219291 52.31 0.219291 52.1054 0.423898L47.773 4.75634L43.3905 0.373854C43.1859 0.169246 42.8542 0.169246 42.6495 0.373854Z" fill="#00A518"/>
</svg>
